<?xml version="1.0" encoding="utf-8"?>
<!-- Generator: Adobe Illustrator 18.0.0, SVG Export Plug-In . SVG Version: 6.00 Build 0)  -->
<!DOCTYPE svg PUBLIC "-//W3C//DTD SVG 1.1//EN" "http://www.w3.org/Graphics/SVG/1.1/DTD/svg11.dtd">
<svg version="1.1" id="Layer_1" xmlns="http://www.w3.org/2000/svg" xmlns:xlink="http://www.w3.org/1999/xlink" x="0px" y="0px"
	 viewBox="0 0 198 83.3" enable-background="new 0 0 198 83.3" xml:space="preserve">
<path fill="#FFFFFF" d="M171.4,36.7c1.2,0,2.2-0.2,3-0.5c0.8-0.4,1.5-0.8,2.1-1.4c0.5-0.6,0.9-1.2,1.2-2c0.3-0.7,0.4-1.5,0.4-2.3
	c0-0.9-0.2-1.6-0.5-2.2c-0.3-0.6-0.7-1.1-1.2-1.5c-0.5-0.4-1.1-0.7-1.8-0.8c-0.7-0.2-1.5-0.3-2.3-0.3c-1.3,0-2.3,0.2-3.2,0.6
	c-0.9,0.4-1.5,0.9-2.1,1.5c-0.5,0.6-0.9,1.2-1.1,1.9c-0.2,0.7-0.3,1.3-0.3,1.8c0,1.6,0.5,2.9,1.4,3.8
	C167.9,36.2,169.4,36.7,171.4,36.7z"/>
<path fill="#FFFFFF" d="M178.1,62.6c-1,0.9-2,1.7-3,2.5s-2,1.5-3,2.1c-1,0.6-1.9,0.9-2.7,0.9c-0.7,0-1.2-0.3-1.4-0.9
	c-0.2-0.6-0.3-1.4-0.3-2.4c0-1,0.2-2.2,0.5-3.5s0.6-2.6,0.8-3.9c0.2-1.3,0.6-2.9,1.2-4.7c0.6-1.8,1-3.3,1.3-4.5
	c0.3-1.2,0.6-2.2,0.8-3.1c0.2-0.9,0.4-1.6,0.4-2.1c0-0.6-0.2-1.1-0.5-1.4c-0.3-0.4-1-0.5-1.9-0.5c-0.5,0-1.1,0.1-1.7,0.2
	c-0.6,0.1-1.3,0.3-1.8,0.6c-0.6,0.3-1.1,0.6-1.6,1c-0.5,0.5-0.8,1-0.9,1.6c-0.2,0.8-0.7,2.6-1.6,5.3c-0.9,3.3-1.6,5.5-1.9,6.5
	c-0.1,0.4-0.4,1.8-0.9,4.3c-0.7,0.9-1.4,1.7-2.1,2.5c-0.5,0.5-1,1-1.5,1.5s-1.1,0.9-1.6,1.3s-1.1,0.7-1.6,0.9
	c-0.5,0.2-1,0.4-1.5,0.4c-0.6,0-1.1-0.3-1.2-0.9s-0.3-1.4-0.3-2.4c0-1.2,0.2-2.7,0.6-4.5s0.7-3.4,1-4.8s0.6-2.8,0.8-4.1
	c0.2-1.3,0.3-2.5,0.3-3.6c0-0.7-0.1-1.3-0.2-1.7c-0.1-0.4-0.3-0.7-0.5-1c-0.2-0.2-0.5-0.4-0.8-0.4c-0.3-0.1-0.6-0.1-1-0.1
	c-0.3,0-0.5,0-0.8,0s-0.5,0-0.8,0c-0.3,0-0.6,0-0.9-0.1c-0.3,0-0.6-0.1-0.8-0.2c-0.3-0.1-0.5-0.3-0.7-0.6c-0.2-0.3-0.4-0.5-0.6-0.8
	c-0.2-0.3-0.4-0.5-0.7-0.7s-0.7-0.3-1.2-0.3c-1.6,0-3.1,0.3-4.7,1c-1.5,0.7-3,1.6-4.3,2.7c-1.4,1.1-2.6,2.5-3.8,4
	c-1.2,1.5-2.2,3.3-3.2,5.4c-1,2.1-1.8,4-2.2,5.8s-0.7,3.5-0.7,5.2c0,1.5,0.2,2.9,0.7,4.1c0.1,0.1,0.1,0.3,0.2,0.4
	c-0.4,0.1-0.8,0.2-1.1,0.3c-1,0.2-2,0.4-2.9,0.4c-1.4,0-2.7-0.5-3.8-1.4c-1.5-1.2-2.6-2.6-3.3-4.2c-1.8-3.8-3.3-7-4.6-9.6
	c0-0.1-1.4-3.3-4.1-9.8c3.3,0,6.2-0.2,8.7-0.6c2.5-0.4,4.7-1.1,6.6-1.9c1.9-0.9,3.4-1.9,4.7-3.2c1.3-1.3,2.3-2.8,3-4.5
	c0.8-1.7,1.3-3.6,1.6-5.8s0.5-4.5,0.5-7.1c0-0.7-0.1-1.5-0.1-2.4c0-0.9,0-1.5-0.1-2.1c0-0.2-0.1-0.5-0.2-0.9c-0.1-0.4-0.3-0.7-0.6-1
	c-0.3-0.3-0.7-0.6-1.3-0.9c-0.6-0.2-1.3-0.4-2.2-0.4c-1.2,0.1-2.1,0.3-2.7,0.4c-0.6,0.2-1,0.4-1.3,0.8c-0.2,0.4-0.4,0.9-0.4,1.6
	c0,0.7,0,1.6,0,2.7c0,2.8-0.2,5.2-0.6,7.2c-0.4,2-1,3.7-1.9,5.1c-0.8,1.4-1.8,2.5-3.1,3.3s-2.6,1.5-4.2,1.9
	c-1.6,0.4-3.4,0.7-5.3,0.9c-2,0.1-4.1,0.2-6.5,0.2c0.1-1.8,0.3-3.7,0.4-5.6c0.1-1.7,0.3-3.5,0.4-5.6c0.2-2.1,0.3-4.1,0.5-6
	c0.1-0.7,0.1-1.4,0.2-2.1c0.1-0.7,0-1.6-0.3-2.5c0-0.4-0.1-0.7-0.2-1.1c-0.1-0.4-0.3-0.7-0.7-1.1s-0.8-0.6-1.3-0.8
	c-0.6-0.2-1.3-0.3-2.2-0.3c-1.5,0-3.3,0.1-5.3,0.3c-2,0.2-4.2,0.5-6.3,1c-2.2,0.5-4.4,1.2-6.5,2.2c-2.2,0.9-4.2,2.2-6,3.7
	c-1.8,1.5-3.3,3.4-4.6,5.6c-1.2,2.2-1.8,4.9-2.2,7.9c0,0,0.2,0.1,0.2,0.1v0.3c0,0.2-0.2,0.5,0,0.9c0.1,0.3,0.2,0.7,0.6,1
	c0.4,0.3,0.9,0.6,1.6,0.8c0.7,0.2,1.7,0.3,3,0.3c1,0,1.7-0.1,2.3-0.3c0.6-0.2,1-0.5,1.3-0.8c0.3-0.3,0.5-0.6,0.5-0.8
	c0.1-0.3,0.1-0.5,0.1-0.6c0-1.1,0.1-2.3,0.4-3.5c0.3-1.2,0.7-2.5,1.3-3.6c0.6-1.2,1.4-2.3,2.3-3.4c0.9-1.1,2-2,3.3-2.9
	c1.3-0.8,2.7-1.5,4.3-1.9c1.6-0.5,3.4-0.7,5.4-0.7l-0.4,2.8c-0.5,3.5-1,7.1-1.5,10.7c-0.5,3.6-1.1,7.1-1.9,10.5s-1.6,6.5-2.6,9.4
	c-1,2.9-2.2,5.5-3.5,7.6c-1.3,2.2-2.8,3.9-4.5,5.1c-1.7,1.3-3.5,1.9-5.6,1.9c-0.8,0-1.5-0.1-2.3-0.3c-0.8-0.2-1.6-0.5-2.4-0.9
	c-0.1,0-0.1,0-0.2,0c0.2-0.3,0.5-0.7,1-1.2c0.6-0.8,1.3-1.7,2.1-2.7c0.8-1.1,1.7-2.3,2.7-3.7c1-1.4,1.9-2.7,2.8-3.8
	c0.8-1.1,1.6-2.2,2.2-3.1c0.6-0.9,1.1-1.6,1.4-2.1c1-0.3,1.6-0.5,2.1-0.8c0.4-0.3,0.6-0.5,0.7-0.7c0.1-0.6,0.2-1.2,0.2-2
	c0-1-0.2-1.7-0.5-2.3c-0.4-0.6-0.9-0.9-1.7-0.9c-0.1,0-0.2,0-0.3,0.1c-0.1,0-0.3,0.1-0.6,0.1c-0.3,0-0.7,0.3-1.2,0.3
	c-0.5,0-1.3,0.2-2.2,0.2c-0.3,0-0.7,0-1,0s-0.8-0.2-1.2-0.2c-0.6,0-1.2-0.3-1.7-0.5c-0.6-0.3-1.1-0.6-1.6-0.9
	c-0.5-0.3-1.1-0.6-1.6-0.9C69,40.2,68.5,40,67.9,40c-0.7,0-1.5,0.1-2.4,0.4c-0.9,0.2-1.7,0.7-2.5,1.4s-1.5,1.6-2.1,2.9
	c-0.6,1.2-1.1,2.8-1.5,4.8c0,0.3-0.1,0.5-0.1,0.8c0,0.3,0,0.5,0,0.7c0,0.5,0.1,1,0.2,1.3c0.1,0.3,0.4,0.5,0.8,0.5
	c0.4,0,0.8-0.2,1.3-0.7c0.5-0.5,1.1-1.3,1.8-2.3c0.3-0.5,0.6-0.9,0.9-1.1c0.3-0.3,0.6-0.5,0.9-0.6c0.3-0.1,0.7-0.2,1.2-0.2
	s1.1,0,1.8,0c0.3,0,0.6,0,0.8,0.1c0.3,0.1,0.5,0.2,0.7,0.3s0.5,0.3,0.8,0.4c0.3,0.2,0.6,0.3,1.1,0.5l-8.2,11.3l0-0.1
	c-0.5,0.3-1,0.6-1.7,1c-0.7,0.4-1.4,0.8-2.2,1.3s-1.6,0.9-2.5,1.4c-0.9,0.5-1.7,0.9-2.5,1.3c-0.8,0.4-1.5,0.7-2.2,0.9
	c-0.7,0.2-1.3,0.4-1.7,0.4c-0.3,0-0.5-0.1-0.6-0.2c-0.2-0.1-0.3-0.3-0.4-0.6c-0.1-0.3-0.2-0.6-0.2-1.1c0-0.5-0.1-1.1-0.1-1.8
	c0-0.9,0-1.8,0.1-2.7c0.1-0.9,0.1-1.8,0.2-2.8c0.4-1.2,0.9-2.6,1.4-4.2c0.5-1.6,1-3.3,1.6-5.1c0.5-1.8,1.1-3.6,1.6-5.6
	c0.5-1.9,1-3.8,1.4-5.7s0.8-3.7,1-5.4c0.2-1.7,0.4-3.3,0.4-4.6c0-1.8-0.1-3.1-0.4-4.2c-0.2-1-0.6-1.8-1-2.3s-0.9-0.9-1.5-1.1
	c-0.6-0.2-1.1-0.3-1.8-0.4s-1.3-0.1-1.9-0.2c-0.6-0.1-0.9-0.3-1.9-0.7v-0.2c0,0,0-0.1,0-0.2c0-0.1,0-0.2,0-0.3c0-0.2,0-0.3-0.1-0.5
	s-0.2-0.4-0.5-0.6c-0.2-0.2-0.6-0.4-1-0.5c-0.5-0.1-1.1-0.2-1.8-0.2c-2.8,0-5.6,0.4-8.2,1.2c-2.6,0.8-5.2,1.8-7.5,3.2
	c-2.4,1.4-4.6,3-6.7,4.8c-2.1,1.9-4,3.9-5.8,6c-1.8,2.2-3.4,4.5-4.7,6.9c-1.4,2.4-2.6,4.9-3.6,7.3c-1,2.5-1.7,4.9-2.2,7.3
	c-0.5,2.4-0.8,4.7-0.8,6.9c0,3.7,0.4,6.6,1.3,8.8s2,4,3.5,5.5c1.5,1.5,3.1,2.6,5,3.3c1.9,0.7,3.9,1.1,6,1.1c1.9,0,3.9-0.3,5.8-1
	c1.9-0.7,3.8-1.7,5.6-3c1.8-1.3,3.5-3.2,5.1-5.5c1.6-2.4,3-4.8,4.3-7.4C42.2,62,42,63,41.9,64c-0.1,0.9-0.2,1.8-0.2,2.6
	c0,1.9,0.2,3.4,0.6,4.6c0.4,1.2,0.9,2.1,1.5,2.8c0.6,0.7,1.3,1.1,2,1.4c0.7,0.3,1.5,0.4,2.2,0.4c1,0,2.1-0.1,3.2-0.4
	s2.3-0.7,3.4-1.1c1.1-0.5,2.2-1,3.3-1.6c0.4-0.2,0.7-0.4,1-0.6c0.2,0.2,0.5,0.4,0.8,0.5c0.5,0.2,1.1,0.3,1.8,0.3
	c0.6,0,1.4-0.1,2.3-0.4c1,0.5,1.9,0.9,2.8,1.2c0.8,0.3,1.6,0.6,2.2,0.8c0.6,0.2,1.2,0.4,1.5,0.4c0.4,0.1,0.6,0.1,0.7,0.1
	c0.9,0,1.9-0.1,2.9-0.3c0.2,0,0.5,0,0.7,0c2.6,0,5-0.5,7.3-1.5c2.3-1,4.5-2.5,6.5-4.7c2-2.1,3.8-4.8,5.4-8.2c1.6-3.3,3-7.3,4.2-11.9
	c1,1.1,1.8,2.3,2.6,3.6c0.8,1.3,1.5,2.7,2.1,4.2c0.6,1.4,1.3,2.9,2.1,4.5c0.7,1.6,1.4,3.1,2.1,4.4s1.6,3.1,2.8,5.2
	c1.2,2.1,2.3,3.6,3.3,4.5c1,0.9,2.1,1.6,3.4,2.1c1.3,0.5,2.7,0.8,4.4,0.8c1.5,0,2.9-0.1,4.4-0.4c1.4-0.3,2.8-0.7,4.1-1.1
	c1.3-0.5,2.4-0.9,3.5-1.5c0,0,0.1,0,0.1-0.1c0.2,0,0.4,0,0.5,0c1,0,2.1-0.2,3.1-0.5c1-0.3,2-0.8,3-1.3c1-0.5,1.8-1.1,2.6-1.8
	c0.8-0.7,1.5-1.3,2-1.9c0.7,1.8,1.6,3.2,2.6,4.2c1,1,2.3,1.4,3.8,1.4c1.3,0,2.5-0.3,3.8-0.9c1.3-0.6,2.4-1.4,3.5-2.3
	c0.5-0.4,1-0.9,1.5-1.3c0,0.1,0,0.2,0.1,0.3c0.2,0.9,0.6,1.6,1.1,2.2c0.5,0.6,1.2,1.1,2,1.4c0.8,0.3,1.8,0.5,3,0.5
	c1.3,0,2.7-0.2,4.2-0.7c1.5-0.5,2.9-1.1,4.3-1.8c1.4-0.7,2.7-1.5,3.9-2.4c1.2-0.9,2-1.7,3-2.4v-6.9C179.7,61,179.1,61.8,178.1,62.6z
	 M42,49.2c-0.2,1-0.6,2.2-1.1,3.6c-0.5,1.4-1.2,2.8-2,4.3c-0.8,1.5-1.8,3.1-2.8,5c-1.1,1.8-2.3,3.3-3.6,4.5
	c-1.3,1.2-2.7,2.1-4.2,2.8c-1.5,0.7-3.1,1.1-4.8,1.1c-2.7,0-4.7-0.9-6-2.6c-1.3-1.8-1.9-4.6-1.9-8.6c0-1.6,0.2-3.4,0.6-5.3
	c0.4-1.9,1-3.9,1.8-5.9c0.8-2,1.7-4.1,2.8-6.1s2.3-4,3.6-5.9c1.3-1.9,2.8-3.7,4.3-5.3c1.5-1.7,3.2-3.1,4.8-4.3
	c1.7-1.2,3.4-2.2,5.2-2.9c1.8-0.7,3.6-1.1,5.5-1.1c0.8,0,1.6,0.1,2.5,0.2c0.9,0.1,1.7,0.3,2.5,0.5L42,49.2z M142,58.4
	c-0.1,0.7-0.3,1.7-0.6,2.8c-0.3,1.1-0.7,2.2-1.2,3.2c-0.5,1-1.1,1.9-1.8,2.6c-0.7,0.7-1.4,1.1-2.3,1.1c-0.2,0-0.4,0-0.5-0.1
	l-1.7-2.9c-0.1,0.1-0.2,0.1-0.3,0.2c0,0,0-0.1,0-0.1c-0.1-0.6-0.1-1.1-0.1-1.7c0-1,0.1-2.1,0.4-3.2c0.3-1.1,0.7-2.4,1.4-3.9
	c0.6-1.5,1.3-2.7,1.9-3.8c0.7-1,1.4-1.9,2.2-2.7c0.8-0.8,1.6-1.4,2.5-1.9c0.9-0.5,1.8-0.7,2.7-0.7L142,58.4z"/>
</svg>
