<?xml version="1.0" encoding="utf-8"?>
<!-- Generator: Adobe Illustrator 18.0.0, SVG Export Plug-In . SVG Version: 6.00 Build 0)  -->
<!DOCTYPE svg PUBLIC "-//W3C//DTD SVG 1.1//EN" "http://www.w3.org/Graphics/SVG/1.1/DTD/svg11.dtd">
<svg version="1.1" id="Layer_1" xmlns="http://www.w3.org/2000/svg" xmlns:xlink="http://www.w3.org/1999/xlink" x="0px" y="0px"
	 viewBox="36 46.1 360 360" enable-background="new 36 46.1 360 360" xml:space="preserve">
<g>
	<path fill="#FB215B" d="M347.1,115.8c-7.5-22.5-19.6-42.9-34.8-60.2l-0.9,1.2c-0.6-0.6-0.9-0.3-0.9-0.3V57l-65.4,93.6
		c-7.8-1.7-15.8-2.6-24.2-2.6s-16.4,1.2-24.2,2.9l-65.7-94.2v-0.6c0,0.3-0.6,0.3-0.9,0.6l-0.9-1.4C101.7,86.7,85,127.6,85,172.8v5.8
		c-0.3,5.8,0,11.8,0.3,18.1c2.6,50.1,9.8,83.2,24.5,109.7c19.3,44.1,68,74.9,110.6,90.4c4-1.2,8.4-2.6,13-4.6
		c-14.1-27.1-22.2-57.9-22.2-90.7C211.2,214.8,268.2,141.1,347.1,115.8L347.1,115.8z M188.4,331.5c-11.5,3.2-24.5,0.9-34.3-7.5
		c-11.5-9.8-15.6-25.1-11.8-38.6c11.5-3.2,24.5-0.9,34.3,7.5C188.1,302.4,192.2,317.7,188.4,331.5z"/>
	<path fill="#FB215B" d="M287.8,324c11.5-9.8,15.6-25.1,11.8-38.6c-11.5-3.2-24.5-0.9-34.3,7.5c-11.5,9.8-15.6,25.1-11.8,38.6
		C264.7,334.7,277.7,332.4,287.8,324z"/>
</g>
</svg>
