<svg xmlns="http://www.w3.org/2000/svg" xmlns:xlink="http://www.w3.org/1999/xlink" version="1.1" x="0px" y="0px" viewBox="0 0 560 259" enable-background="new 0 0 560 259" xml:space="preserve"><g><path fill="#FFFFFF" d="M272.7 176.2h37.5v13.9h-61v-11.3l37-43.9h-35.7V121h59.1v11.3L272.7 176.2z"/><path fill="#FFFFFF" d="M343.5 163l-9.2 10.2v17h-17.6V121h17.6V151l26.5-29.9h20.3l-25.7 28.6l27.3 40.5h-21L343.5 163z"/><path fill="#FFFFFF" d="M469.4 190.2V121h17.6v69.1H469.4z"/><polygon fill="#FFFFFF" points="435.1,190.1 415.9,190.1 425.5,170.2"/><polygon fill="#FFFFFF" points="434.8,121.1 416.8,121.1 387,190.1 405,190.1 410.1,177.2 410.1,177.1 410.1,177.1 415.2,163.6 425.3,138 435.1,163.6 440.3,177.1 445.2,190.1 464,190.1"/><polygon fill="#FFFFFF" points="215.6,190.1 196.4,190.1 206,170.2"/><polygon fill="#FFFFFF" points="215.4,121.1 197.3,121.1 167.5,190.1 185.6,190.1 190.6,177.2 190.7,177.1 190.6,177.1 195.7,163.6 205.8,138 215.7,163.6 220.8,177.1 225.8,190.1 244.5,190.1"/><g><path fill="#FFFFFF" d="M83.3 89.6c-8.7 9.9-14 22.8-14 36.9c0 0.6 0 1.2 0 1.8c-0.1 1.8-0.1 3.8 0 5.7 c0.8 15.8 3.1 26.1 7.7 34.5c6 13.9 21.4 23.5 34.7 28.4c1.2-0.3 2.6-0.8 4.1-1.4c-4.5-8.5-7-18.2-7-28.4 c0-27.4 17.9-50.6 42.7-58.5c-2.4-7-6.3-13.8-11.1-18.8l-0.2-0.1l-20.8 29.7c-2.5-0.5-5-0.8-7.6-0.8c-2.6 0-5.1 0.3-7.6 0.8 L83.3 89.6z M101.7 176.3c-3.6 1-7.7 0.3-10.8-2.3c-3.6-3.1-4.9-7.9-3.7-12.2c3.6-1 7.7-0.3 10.8 2.3 C101.6 167.2 102.9 172 101.7 176.3z"/><path fill="#FFFFFF" d="M132.9 173.9c3.6-3.1 4.9-7.9 3.7-12.2c-3.6-1-7.7-0.3-10.8 2.3c-3.6 3.1-4.9 7.9-3.7 12.2 C125.7 177.3 129.8 176.6 132.9 173.9z"/></g></g></svg>